<svg width="200" height="200" viewBox="0 0 200 200" fill="none" xmlns="http://www.w3.org/2000/svg">
<path d="M13.5339 151.622L12.2656 154.042C12.2656 154.042 14.9819 158.731 18.9041 160.103C19.0707 160.159 19.2488 160.173 19.4219 160.141C19.5949 160.11 19.7572 160.035 19.8934 159.924C20.0295 159.813 20.1351 159.669 20.2003 159.505C20.2654 159.342 20.2879 159.165 20.2657 158.99C19.9996 157.107 19.343 153.727 17.7983 150.824L13.5339 151.622Z" fill="#382633"/>
<path d="M17.7983 150.811L13.5339 151.623L12.2656 154.042C12.8981 155.073 13.6296 156.041 14.4497 156.931C15.1201 155.894 16.8376 153.821 19.4432 155.044C19.0465 153.578 18.495 152.159 17.7983 150.811Z" fill="#E9EEF2"/>
<path d="M13.196 128.324L12.5566 152.114C12.5566 152.114 16.161 154.284 19.4682 152.601L23.2488 134.631L13.196 128.324Z" fill="#382633"/>
<path d="M7.66375 151.273C7.66375 151.273 6.47152 158.941 10.5597 160.258C13.7424 158.896 12.8889 150.488 12.8889 150.488L7.66375 151.273Z" fill="#382633"/>
<path d="M12.8902 150.477L7.66508 151.271C7.49443 152.54 7.46084 153.824 7.56487 155.1C8.39918 154.534 9.40595 154.28 10.409 154.382C11.305 154.515 12.1501 154.882 12.8591 155.446C13.0252 153.794 13.0357 152.13 12.8902 150.477Z" fill="#E9EEF2"/>
<path d="M14.598 120.182C14.598 120.182 7.83853 119.263 5.66831 126.105C3.4981 132.947 7.17157 152.41 7.17157 152.41C7.17157 152.41 11.0939 153.91 13.2641 152.756L15.7695 134.133L14.598 120.182Z" fill="#47303F"/>
<path d="M17.2585 109.258C17.2585 109.258 14.0861 105.418 12.4619 103.459C12.3085 103.273 12.2246 103.04 12.2246 102.799C12.2246 102.558 12.3085 102.325 12.4619 102.139C13.6679 100.705 16.8887 97.515 21.7924 97.4805C22.1058 97.4803 22.4091 97.5913 22.6483 97.7938C22.8876 97.9963 23.0471 98.2772 23.0987 98.5863L24.1527 105.066C21.645 106.085 19.3173 107.5 17.2585 109.258Z" fill="#47303F"/>
<path d="M14.4075 101.748C14.4305 101.151 14.5351 100.56 14.7185 99.9922C13.8911 100.624 13.1345 101.344 12.4619 102.138C12.3085 102.324 12.2246 102.557 12.2246 102.798C12.2246 103.039 12.3085 103.273 12.4619 103.458C14.0861 105.418 17.2585 109.257 17.2585 109.257C17.725 108.853 18.195 108.483 18.6615 108.137L18.9172 107.83C18.9172 107.83 14.4386 102.708 14.4075 101.748Z" fill="#382633"/>
<path d="M17.2573 109.257C19.3214 107.498 21.6551 106.083 24.1689 105.066L23.7749 102.691C20.6049 103.235 17.6591 104.683 15.291 106.859L17.2573 109.257Z" fill="#F48B33"/>
<path d="M17.9791 108.664C18.2072 108.48 18.4353 108.318 18.6703 108.138L18.926 107.831C18.926 107.831 17.9861 106.756 16.9632 105.498C16.3722 105.911 15.812 106.366 15.2871 106.86L17.0357 108.975L17.1532 109.12L17.1878 109.161L17.2673 109.258C17.4988 109.057 17.7269 108.867 17.9584 108.684L17.9791 108.664Z" fill="#EF802E"/>
<path d="M25.1053 122.199C25.1053 122.199 36.1153 124.273 35.4242 132.411C34.7952 139.786 26.3286 136.081 26.0625 135.708C25.7964 135.335 21.3281 131.087 21.3281 131.087L25.1053 122.199Z" fill="#47303F"/>
<path d="M23.0842 119.085C23.0842 119.085 15.8098 118.311 12.8275 119.43C9.84521 120.55 7.56096 132.127 13.4841 136.125C20.8207 141.074 27.3071 124.03 27.3071 124.03L23.0842 119.085Z" fill="#E9EEF2"/>
<path d="M23.3589 111.145C27.3489 108.842 29.912 105.811 29.0837 104.377C28.2554 102.942 24.3493 103.646 20.3593 105.95C16.3693 108.254 13.8063 111.284 14.6346 112.719C15.4629 114.154 19.3689 113.449 23.3589 111.145Z" fill="#47303F"/>
<path d="M23.0497 110.808C25.6865 109.292 27.4751 107.457 27.0448 106.708C26.6144 105.959 24.1279 106.581 21.4911 108.096C18.8543 109.611 17.0657 111.447 17.4961 112.196C17.9265 112.945 20.4129 112.323 23.0497 110.808Z" fill="#382633"/>
<path d="M145.08 66.293H74.6479C70.8361 66.293 67.1804 67.8072 64.485 70.5026C61.7896 73.1979 60.2754 76.8536 60.2754 80.6655V151.097C60.2754 154.909 61.7895 158.565 64.4848 161.261C67.1801 163.957 70.8357 165.472 74.6479 165.473H145.08C148.892 165.472 152.548 163.957 155.244 161.262C157.94 158.566 159.455 154.91 159.456 151.097V80.6655C159.455 76.8533 157.94 73.1976 155.244 70.5024C152.548 67.8071 148.892 66.293 145.08 66.293Z" fill="#CEDAE0"/>
<path d="M164.222 86.2383H87.877V145.176H164.222V86.2383Z" fill="#F48B33"/>
<path d="M159.232 66.293H88.8002C84.9884 66.293 81.3327 67.8072 78.6373 70.5026C75.942 73.1979 74.4277 76.8536 74.4277 80.6655V151.097C74.4277 154.909 75.9419 158.565 78.6371 161.261C81.3324 163.957 84.9881 165.472 88.8002 165.473H159.232C163.044 165.472 166.701 163.957 169.396 161.262C172.092 158.566 173.607 154.91 173.608 151.097V80.6655C173.607 76.8533 172.092 73.1976 169.396 70.5024C166.7 67.8071 163.044 66.293 159.232 66.293ZM155.531 139.901L139.752 139.825L140.623 114.943L127.114 140.198L119.857 140.277L107.216 114.974L105.979 140.64C101.158 141.172 97.4154 140.917 92.5774 140.74L93.2685 92.1109C93.2685 92.1109 107.859 92.0764 110.699 92.0142C110.699 92.0142 122.888 116.049 124.657 118.993L138.674 90.8254C138.674 90.8254 154.74 91.0362 155.607 91.444C155.593 91.4336 156.084 132.785 155.531 139.904V139.901Z" fill="#E9EEF2"/>
<path d="M159.23 66.293H139.229C140.524 72.5306 147.916 91.4474 165.278 102.16C165.278 102.16 155.087 137.101 153.096 153.371C157.577 153.726 162.085 153.456 166.491 152.569L164.552 164.457C167.228 163.394 169.522 161.553 171.139 159.171C172.756 156.789 173.62 153.976 173.62 151.097V80.6655C173.62 78.7767 173.247 76.9066 172.524 75.1619C171.8 73.4172 170.74 71.8322 169.403 70.4975C168.067 69.1627 166.481 68.1044 164.735 67.383C162.99 66.6616 161.119 66.2912 159.23 66.293Z" fill="#CEDAE0"/>
<path d="M34.076 159.123C33.9735 159.122 33.8715 159.11 33.7719 159.085C33.4612 159.006 33.1949 158.806 33.0316 158.53C32.8683 158.254 32.8213 157.924 32.9011 157.613C33.8376 153.967 31.2008 149.043 28.9753 147.246C27.9075 146.389 27.1127 145.072 26.6047 143.337C25.9854 141.141 25.9532 138.821 26.5114 136.609L49.6822 41.6967C49.7607 41.3877 49.9581 41.1223 50.2313 40.958C50.5045 40.7938 50.8316 40.7441 51.1413 40.8197C51.451 40.8953 51.7183 41.0901 51.8851 41.3618C52.052 41.6334 52.1048 41.96 52.0321 42.2704L28.8613 137.19C28.403 138.99 28.4256 140.879 28.9269 142.667C29.2932 143.918 29.8185 144.827 30.4924 145.366C33.6475 147.906 36.3672 153.805 35.2441 158.214C35.178 158.474 35.0273 158.705 34.8158 158.869C34.6043 159.034 34.344 159.123 34.076 159.123Z" fill="#EFE5D8"/>
<path d="M51.1425 40.8165C50.9882 40.7783 50.8278 40.7711 50.6707 40.7951C50.5136 40.8192 50.3628 40.874 50.2269 40.9566C50.0911 41.0391 49.9729 41.1477 49.8791 41.2761C49.7854 41.4044 49.7179 41.5501 49.6807 41.7046L43.6504 66.434L43.8163 66.1541C43.8163 66.1541 45.5234 65.1173 45.945 67.2426L52.0306 42.2748C52.1056 41.9637 52.0543 41.6355 51.8878 41.3622C51.7214 41.0888 51.4533 40.8926 51.1425 40.8165Z" fill="#D4C5B8"/>
<path d="M195.213 37.0118C195.117 37.0065 195.022 37.0065 194.926 37.0118L194.722 37.7306C194.494 37.5257 194.232 37.362 193.948 37.2468C193.248 37.5221 192.657 38.017 192.262 38.6573C191.868 39.2976 191.692 40.0486 191.761 40.7974C191.83 41.5463 192.14 42.2525 192.645 42.81C193.149 43.3674 193.821 43.746 194.56 43.8888C194.706 43.7657 194.843 43.6329 194.971 43.4914L195.455 43.9614C195.606 43.9562 195.757 43.9353 195.904 43.8992C197.753 43.602 199.999 42.1713 199.999 40.478C199.982 38.5704 197.134 37.0118 195.213 37.0118Z" fill="#FFD56E"/>
<path d="M193.916 37.2686C194.047 37.3108 194.172 37.3677 194.29 37.4383C194.181 37.3666 194.065 37.3074 193.944 37.2617L193.916 37.2686Z" fill="#EFB36C"/>
<path d="M194.91 37.0293L194.706 37.7446L194.605 37.6617C195.352 38.2837 195.856 39.4345 195.856 40.7719C195.882 41.7707 195.56 42.7474 194.948 43.5365L195.431 44.0065C196.166 43.096 196.557 41.9555 196.534 40.7857C196.548 39.165 195.884 37.7619 194.91 37.0293Z" fill="#EFB36C"/>
<path d="M192.45 39.1719H42.7324V41.9365H192.45V39.1719Z" fill="#FFD56E"/>
<path d="M42.7324 41.9287H45.8944C46.5856 41.006 46.4439 39.7515 45.7735 39.1641H42.7324V41.9287Z" fill="#EFB36C"/>
<path d="M41.9424 37.1573L41.3998 37.5996C41.282 37.3869 41.1368 37.1906 40.9679 37.0156H40.9506C39.0292 37.0156 36.1816 38.5742 36.1816 40.4956C36.1816 42.2027 38.4279 43.6058 40.2767 43.9168C40.5596 43.7872 40.8081 43.5931 41.0024 43.35L41.3687 43.9479C42.164 43.8537 42.9023 43.4878 43.459 42.9122C44.0157 42.3365 44.3565 41.5863 44.424 40.7883C44.4914 39.9904 44.2813 39.1936 43.8291 38.5326C43.377 37.8717 42.7105 37.3871 41.9424 37.1608V37.1573Z" fill="#FFD56E"/>
<path d="M41.3994 37.5989C41.3406 37.4848 42.0387 39.0227 42.0387 40.1942C41.995 41.3211 41.6358 42.413 41.002 43.3458L41.3683 43.9437C42.2853 42.9169 42.7728 41.5771 42.7298 40.2011C42.7444 39.1377 42.4671 38.0906 41.9281 37.1738L41.3994 37.5989Z" fill="#EFB36C"/>
<path d="M48.755 94.3057C48.755 94.3057 47.7598 92.5778 47.7598 88.2788C47.7598 86.0361 48.5062 38.5159 49.7537 36.9816C51.0013 35.4472 102.841 35.3643 105.585 35.6442C108.329 35.9241 109.117 37.2408 110.281 37.0265C111.446 36.8123 112.12 35.1086 113.768 35.5267C115.417 35.9449 116.263 37.811 117.59 37.4239C118.917 37.0369 118.838 35.7894 120.939 35.9449C123.04 36.1004 123.932 36.8779 124.536 37.4239C125.141 37.9699 115.842 83.3233 59.9862 95.1351L48.755 94.3057Z" fill="#8E4746"/>
<path d="M56.9397 95.878C56.9397 95.878 84.3024 77.3587 88.9089 71.2662C91.7199 67.477 93.7037 63.1397 94.7319 58.5352C94.7319 58.5352 80.781 68.6916 79.8341 70.7236C78.8872 72.7556 58.4361 92.5778 58.4361 92.5778L67.1031 64.3581C67.1031 64.3581 60.4681 73.1599 59.5004 76.004C58.5328 78.8481 55.084 95.878 55.084 95.878H56.9397Z" fill="#7C403C"/>
<path d="M62.4638 85.8884C62.3874 85.8881 62.3133 85.8626 62.253 85.8158C62.1807 85.7598 62.1336 85.6774 62.122 85.5868C62.1103 85.4961 62.1351 85.4045 62.1908 85.332L68.3386 77.3665C68.3651 77.3274 68.3993 77.2942 68.439 77.2689C68.4788 77.2436 68.5234 77.2266 68.57 77.2192C68.6166 77.2117 68.6642 77.2139 68.7099 77.2255C68.7556 77.2372 68.7985 77.2581 68.8358 77.2869C68.8731 77.3157 68.9042 77.3519 68.927 77.3932C68.9498 77.4345 68.964 77.48 68.9686 77.5269C68.9731 77.5739 68.968 77.6213 68.9536 77.6662C68.9392 77.7111 68.9157 77.7526 68.8846 77.7881L62.7368 85.7536C62.7046 85.7954 62.6633 85.8293 62.6159 85.8527C62.5686 85.876 62.5166 85.8883 62.4638 85.8884Z" fill="#7C403C"/>
<path d="M166.903 92.5765C166.903 92.5765 137.27 70.1141 127.822 38.0516C127.176 35.8365 130.625 34.9034 131.489 35.0486C132.353 35.1937 133.787 37.1808 134.433 37.0114C135.079 36.8421 136.161 35.3043 137.889 35.0313C139.617 34.7583 188.509 36.3583 189.235 36.4931C191.308 36.8766 186.874 83.8162 185.368 91.8612C185.249 92.6002 184.933 93.2933 184.452 93.867C183.971 94.4408 183.344 94.8737 182.638 95.12C177.43 97.1312 166.903 92.5765 166.903 92.5765Z" fill="#8E4746"/>
<path d="M168.176 51.5625C168.176 51.5625 170.695 57.5617 171.535 61.2801C172.375 64.9985 179.808 92.6065 182.628 95.1189L175.402 94.1478C175.402 94.1478 157.739 84.4337 147.904 57.2023C147.904 57.2023 159.678 68.9519 162.968 73.3407C166.258 77.7295 175.734 92.3473 175.734 92.3473L177.893 93.0661C177.893 93.0661 169.257 68.5959 168.176 51.5625Z" fill="#7C403C"/>
<path d="M130.083 41.9287H126.046C125.68 41.9287 125.328 41.783 125.069 41.5238C124.81 41.2646 124.664 40.913 124.664 40.5464C124.664 40.1798 124.81 39.8282 125.069 39.5689C125.328 39.3097 125.68 39.1641 126.046 39.1641H130.083C130.449 39.1641 130.801 39.3097 131.06 39.5689C131.319 39.8282 131.465 40.1798 131.465 40.5464C131.465 40.913 131.319 41.2646 131.06 41.5238C130.801 41.783 130.449 41.9287 130.083 41.9287Z" fill="#FFD56E"/>
<path d="M50.5998 41.9287H48.6128C48.2462 41.9287 47.8946 41.783 47.6353 41.5238C47.3761 41.2646 47.2305 40.913 47.2305 40.5464C47.2305 40.1798 47.3761 39.8282 47.6353 39.5689C47.8946 39.3097 48.2462 39.1641 48.6128 39.1641H50.5998C50.9664 39.1641 51.318 39.3097 51.5773 39.5689C51.8365 39.8282 51.9821 40.1798 51.9821 40.5464C51.9821 40.913 51.8365 41.2646 51.5773 41.5238C51.318 41.783 50.9664 41.9287 50.5998 41.9287Z" fill="#FFD56E"/>
<path d="M56.9408 97.4456C56.9408 97.4456 77.8619 142.619 81.4525 150.561C81.4525 150.561 73.5042 153.208 71.0541 152.634C68.604 152.06 63.3616 151.653 63.3616 151.653L64.1771 159.832C64.1771 159.832 59.7434 159.832 58.3265 158.181V162.117C58.3265 162.117 56.6781 163.112 55.1023 161.47C53.5265 159.829 52.5036 159.366 51.1662 160.779C49.8288 162.193 43.6914 163.768 43.6914 157.828C43.6914 151.888 48.9614 95.5449 48.9614 95.5449L56.9408 97.4456Z" fill="#8E4746"/>
<path d="M170.614 96.1367C170.614 96.1367 163.962 114.452 161.598 119.211C159.234 123.969 153.76 135.944 152.43 143.843C152.43 143.843 155.606 146.608 164.217 145.105L162.489 156.92C162.489 156.92 168.108 156.474 169.746 153.962C171.385 151.45 174.329 152.421 176.102 153.488C177.874 154.556 179.177 157.532 183.037 158.631C183.037 158.631 186.894 156.478 187.184 150.71C187.475 144.942 183.421 97.0698 183.421 97.0698C183.421 97.0698 174.329 99.6996 170.614 96.1367Z" fill="#8E4746"/>
<path d="M171.061 145.104C171.061 145.104 174.606 139.178 175.94 133.413C177.274 127.649 177.713 97.9815 177.713 97.9815L173.608 97.6602L166.479 117.299C166.479 117.299 169.153 116.708 169.81 115.672C170.466 114.635 173.611 105.729 173.611 105.729C173.611 105.729 170.325 131.343 170.619 135.038C170.912 138.732 171.061 145.104 171.061 145.104Z" fill="#7C403C"/>
<path d="M52.9811 151.553C52.9811 151.553 50.7832 140.84 50.7832 135.581C50.7832 130.321 52.6147 96.4199 52.6147 96.4199L56.9414 97.4566L61.6135 138.953C61.6135 138.953 59.5401 138.235 59.2394 136.956C58.9388 135.677 55.0925 110.125 55.0925 110.125L52.9811 151.553Z" fill="#7C403C"/>
<path d="M155.593 91.4332C155.371 91.3295 154.165 91.2396 152.482 91.1602C153.467 92.3006 154.514 93.4271 155.624 94.5261C155.606 92.5839 155.593 91.4332 155.593 91.4332Z" fill="#EF802E"/>
<path d="M155.538 139.828C155.538 139.855 155.538 139.879 155.521 139.903C155.535 139.879 155.535 139.852 155.538 139.828Z" fill="#EF802E"/>
<path d="M27.8701 129.089C27.8701 129.089 26.5742 128.972 25.997 129.435C25.4199 129.898 25.1055 131.737 25.1055 131.737L26.9785 132.2L27.8701 129.089Z" fill="#E5A17F"/>
<path d="M30.2559 136.963C30.5597 136.982 30.8644 136.982 31.1682 136.963C31.8985 136.5 32.4616 135.816 32.7751 135.011C33.6563 132.899 32.4295 130.107 31.2338 128.994L30.2559 136.963Z" fill="#E9EEF2"/>
<path d="M29.731 137.516C29.731 137.516 32.0706 129.965 32.1259 128.742C32.1812 127.519 28.2416 127.785 27.7094 128.21C27.1772 128.635 25.7949 133.421 25.7949 134.541C25.7949 135.66 29.731 137.516 29.731 137.516Z" fill="#F4B490"/>
<path d="M31.2547 132.37C30.2663 132 28.2136 131.302 26.5376 131.171C26.4926 131.323 26.4477 131.475 26.4062 131.627C28.0374 131.737 30.1523 132.456 31.1268 132.819C31.1717 132.667 31.2132 132.518 31.2547 132.37Z" fill="#E5A17F"/>
<path d="M31.823 130.245C31.8611 130.082 31.8991 129.93 31.9336 129.789C30.5755 129.166 28.2982 129.156 27.1958 129.191C27.137 129.339 27.0783 129.498 27.0195 129.664C28.0113 129.623 30.5306 129.592 31.823 130.245Z" fill="#E5A17F"/>
<path d="M22.8603 122.718C22.8603 122.718 18.0879 131.654 6.4247 127.977C-3.80778 124.753 0.798737 111.791 2.64411 107.975C2.67023 107.917 2.71581 107.869 2.77308 107.841C2.83035 107.812 2.89576 107.804 2.95815 107.819C3.02054 107.833 3.07605 107.868 3.1152 107.919C3.15435 107.97 3.17472 108.032 3.17284 108.096C3.14519 110.92 3.4493 118.118 7.14696 119.421C7.14696 119.421 6.08604 111.867 8.25625 107.671C8.28664 107.616 8.33504 107.572 8.39353 107.547C8.45203 107.523 8.51714 107.519 8.57819 107.536C8.63924 107.553 8.69261 107.591 8.72956 107.642C8.7665 107.694 8.78483 107.756 8.78153 107.82C8.6122 111.068 9.1271 120.064 20.1855 118.757L22.8603 122.718Z" fill="#47303F"/>
<path d="M6.42471 127.978C11.4839 129.571 15.2473 128.79 17.884 127.397C18.0326 126.589 18.1536 125.801 18.1536 125.801C18.1536 125.801 6.83595 129.644 2.35038 124.377C-2.1352 119.111 2.64411 107.973 2.64411 107.973C0.798738 111.795 -3.80778 124.757 6.42471 127.978Z" fill="#382633"/>
<path d="M19.2617 130.331C19.2617 130.331 22.2164 126.657 22.4065 122.604L26.0039 123.55C26.0039 123.55 26.1974 127.836 22.5965 132.833L19.2617 130.331Z" fill="white"/>
<path d="M24.3226 113.784L21.6306 119.372C21.3836 119.886 21.2706 120.455 21.302 121.025C21.3334 121.594 21.5083 122.147 21.8103 122.631L23.0889 124.704L28.9292 120.651L24.3226 113.784Z" fill="#E5A17F"/>
<path d="M23.0868 124.688C21.2172 120.334 24.3965 118.73 24.9253 118.025L25.378 117.424L28.3568 121.916C28.3568 121.916 26.4147 126.561 23.0868 124.688Z" fill="#F4B490"/>
<path d="M30.1885 115.757V118.428C30.1885 118.428 30.579 120.111 30.4788 121.038C30.2991 122.703 28.9203 124.383 28.1186 124.69C27.3894 124.69 27.2512 124.569 27.0818 124.863C26.6464 124.766 20.6921 119.303 20.5366 118.149C20.3811 116.994 19.4204 113.041 22.5029 112.032C25.0567 111.189 29.7013 111.911 30.1885 115.757Z" fill="#F4B490"/>
<path d="M21.7666 118.512C21.7666 118.512 22.1122 120.752 26.6047 120.617C26.6047 120.617 26.228 121.225 25.6612 121.128C25.3779 124.391 27.206 124.601 28.1148 124.691C27.7397 124.783 27.3566 124.837 26.971 124.854C23.2629 124.384 21.1273 120.23 20.9683 119.076C20.8093 117.922 21.5178 118.561 21.7666 118.512Z" fill="#E5A17F"/>
<path d="M22.4918 112.032C24.1713 111.479 26.7424 111.607 28.453 112.841C29.1234 114.33 27.6478 114.811 26.7251 113.878C25.6884 112.841 23.7981 112.475 22.9687 112.862C22.1393 113.249 23.5355 113.919 22.4227 117.544C22.27 117.949 22.0346 118.317 21.7316 118.626L20.6188 118.384C20.5805 118.31 20.5537 118.231 20.5393 118.149C20.3665 116.998 19.4093 113.041 22.4918 112.032Z" fill="#5F3F52"/>
<path d="M21.8234 118.494C21.8234 118.494 21.3914 116.963 20.4895 117.112C19.2558 117.329 19.8916 118.795 20.0782 119.351C20.2649 119.907 20.3443 120.564 20.9042 120.536C21.2809 120.526 21.8891 120.374 21.8234 118.494Z" fill="#E5A17F"/>
<path d="M30.1796 116.573V118.391C29.7649 118.626 28.8422 118.851 28.6141 118.55C28.3411 118.184 28.6901 116.083 28.6901 116.083C29.053 115.796 29.8651 116.518 30.1796 116.573Z" fill="#E5A17F"/>
<path d="M28.8053 119.711C28.8053 119.711 28.4839 120.361 27.1914 120.291L28.1141 120.831C28.1141 120.831 28.8467 120.789 28.8053 119.711Z" fill="#E5A17F"/>
<path d="M26.5718 116.104C26.7161 116.708 26.7881 117.327 26.786 117.949C26.7169 118.585 25.2275 119.1 24.7506 118.64C24.2737 118.18 24.5294 116.48 24.5294 116.48L26.5718 116.104Z" fill="#E5A17F"/>
<path d="M24.4961 116.531C24.7829 115.588 26.224 114.994 26.6041 115.108C26.9255 115.453 26.6283 116.227 26.6283 116.227C25.4879 116.227 24.4961 117.136 24.4961 117.136V116.531Z" fill="#5F3F52"/>
<path d="M25.4187 118.173C25.5345 118.244 25.67 118.274 25.8047 118.261C25.9394 118.247 26.066 118.19 26.1652 118.097C26.1341 117.645 25.9613 117.285 25.8196 117.282C25.5846 117.265 25.3634 117.382 25.4187 118.173Z" fill="#442E3C"/>
<path d="M28.702 118.09C28.8134 118.155 28.9407 118.187 29.0695 118.184C29.1984 118.18 29.3236 118.14 29.4312 118.069C29.3482 117.724 29.2238 117.285 29.0856 117.281C28.8471 117.264 28.6882 117.475 28.702 118.09Z" fill="#442E3C"/>
<path d="M30.185 116.853C30.0101 116.617 29.7807 116.428 29.5165 116.3C29.2523 116.173 28.9612 116.111 28.668 116.12C28.668 116.12 28.8408 115.27 29.1207 115.222C29.4006 115.173 30.1885 115.958 30.2023 116.158C30.2418 116.389 30.2359 116.625 30.185 116.853Z" fill="#5F3F52"/>
<path d="M28.1431 121.798C28.1431 121.798 27.7077 122.489 27.255 122.299C26.9995 122.209 26.7881 122.025 26.6641 121.784L28.1431 121.798Z" fill="#E5A17F"/>
<path d="M26.2227 121.615C26.2227 121.615 26.8067 122.372 27.4806 122.372C27.7046 122.348 27.9202 122.273 28.1112 122.153C28.3021 122.034 28.4634 121.872 28.5829 121.681L27.6879 121.121L26.2227 121.615Z" fill="white"/>
<path d="M27.6644 121.374C27.6644 121.374 26.6277 122.345 24.6855 121.374C24.6855 121.374 26.2372 120.06 27.6333 120.302C28.0567 120.389 28.4573 120.564 28.8095 120.814C29.1618 121.065 29.4579 121.386 29.6791 121.757C29.338 121.866 28.9749 121.889 28.623 121.822C28.2711 121.755 27.9415 121.601 27.6644 121.374Z" fill="#5F3F52"/>
<path d="M26.0902 121.83C25.9174 121.83 24.4038 121.778 24.0168 120.793C23.8987 120.511 23.8839 120.197 23.975 119.905C24.066 119.614 24.257 119.364 24.5144 119.2C24.5912 119.156 24.682 119.143 24.7679 119.164C24.8539 119.185 24.9285 119.239 24.9763 119.313C25.0242 119.387 25.0416 119.477 25.0251 119.564C25.0086 119.651 24.9594 119.729 24.8876 119.78C24.7653 119.857 24.6747 119.976 24.6323 120.114C24.5898 120.252 24.5982 120.401 24.6561 120.534C24.8461 120.997 25.7896 121.118 26.104 121.125C26.1957 121.125 26.2836 121.161 26.3484 121.226C26.4132 121.291 26.4496 121.378 26.4496 121.47C26.4496 121.562 26.4132 121.65 26.3484 121.715C26.2836 121.779 26.1957 121.816 26.104 121.816L26.0902 121.83Z" fill="#5F3F52"/>
<path d="M28.0633 113.387L25.2987 111.763C25.2987 111.763 29.1242 110.177 29.7912 112.682C30.1368 114.019 28.0115 115.899 25.1121 114.296L25.0879 113.968C25.0879 113.968 26.4702 114.313 26.173 113.249L28.0633 113.387Z" fill="#5F3F52"/>
<path d="M29.2598 121.891C29.2242 121.895 29.1883 121.895 29.1527 121.891C29.062 121.88 28.9795 121.834 28.9232 121.762C28.8669 121.69 28.8413 121.599 28.852 121.508C28.8632 121.417 28.9099 121.335 28.9818 121.278C29.0537 121.222 29.1449 121.196 29.2356 121.207C29.365 121.205 29.4921 121.173 29.6068 121.113C29.7215 121.053 29.8204 120.967 29.8956 120.862C29.9155 120.799 29.9149 120.732 29.8937 120.67C29.8726 120.607 29.8321 120.554 29.7782 120.516C29.7392 120.491 29.7057 120.458 29.6796 120.42C29.6536 120.382 29.6355 120.338 29.6265 120.293C29.6175 120.247 29.6177 120.201 29.6271 120.155C29.6365 120.11 29.655 120.067 29.6814 120.029C29.7297 119.954 29.8054 119.9 29.8924 119.879C29.9794 119.859 30.071 119.873 30.1479 119.918C30.3224 120.033 30.4569 120.199 30.5324 120.393C30.608 120.588 30.621 120.801 30.5695 121.003C30.4486 121.553 29.7332 121.891 29.2598 121.891Z" fill="#5F3F52"/>
<path d="M29.4237 139.885C30.6159 138.693 31.3313 134.011 31.0133 133.205C30.6954 132.4 27.5956 131.934 27.5956 131.934C27.5956 131.934 27.4159 131.028 27.0185 130.869C26.78 130.773 24.8413 130.268 23.1999 129.732C20.964 132.317 21.2474 136.602 21.5549 138.672C25.2526 139.83 28.8362 140.473 29.4237 139.885Z" fill="#F4B490"/>
<path d="M29.1805 140.304C29.1432 140.303 29.1066 140.294 29.0734 140.277C29.0463 140.263 29.0223 140.243 29.0027 140.22C28.9832 140.196 28.9685 140.169 28.9595 140.14C28.9505 140.11 28.9473 140.08 28.9503 140.049C28.9532 140.019 28.9622 139.989 28.9767 139.962C30.2207 137.616 30.3175 133.721 30.3175 133.683C30.3184 133.622 30.3432 133.564 30.3865 133.522C30.4298 133.479 30.4882 133.455 30.549 133.455C30.6108 133.457 30.6693 133.483 30.712 133.528C30.7546 133.572 30.7781 133.632 30.7771 133.694C30.7771 133.856 30.6734 137.737 29.3948 140.18C29.3745 140.219 29.3436 140.251 29.3057 140.273C29.2678 140.295 29.2244 140.306 29.1805 140.304Z" fill="#E5A17F"/>
<path d="M21.5547 138.69C21.2472 136.616 20.9638 132.335 23.1997 129.75C22.1042 129.404 21.1262 129.021 20.912 128.744C20.0895 127.763 19.4364 120.855 18.721 118.864C18.721 118.864 17.7119 117.378 14.0005 119.151C11.8164 120.188 11.0769 131.346 12.905 134.287C13.7966 135.721 17.4631 137.373 21.1228 138.555L21.5547 138.69Z" fill="#47303F"/>
<path d="M22.5973 132.832C22.9222 131.266 24.3425 130.24 24.4945 130.133C24.066 130.005 22.2103 129.397 21.8163 129.234C21.1864 129.918 20.6885 130.712 20.3476 131.577C19.3109 133.976 19.4837 136.885 19.6012 138.019C20.1057 138.199 20.6137 138.364 21.1217 138.537L21.5537 138.672C22.0928 138.841 22.6284 138.997 23.1537 139.142C22.7252 137.393 22.2829 134.366 22.5973 132.832Z" fill="#E9EEF2"/>
<path d="M58.6103 97.7467H58.5481L47.4067 97.1765C47.0859 97.16 46.7849 97.0167 46.5697 96.7782C46.3545 96.5397 46.2429 96.2256 46.2594 95.9048C46.2759 95.584 46.4192 95.2829 46.6577 95.0677C46.8961 94.8526 47.2103 94.741 47.5311 94.7575L58.6725 95.3277C58.9933 95.3359 59.2976 95.4712 59.5186 95.7039C59.7396 95.9366 59.8592 96.2475 59.8509 96.5683C59.8427 96.8891 59.7073 97.1934 59.4747 97.4144C59.242 97.6354 58.9311 97.7549 58.6103 97.7467Z" fill="#D4C5B8"/>
<path d="M179.445 97.4526C178.917 97.4526 176.128 97.3835 175.502 97.3455C175.184 97.3325 174.882 97.1995 174.658 96.9732C174.434 96.7469 174.303 96.4441 174.293 96.1256C174.294 95.961 174.329 95.7984 174.395 95.6477C174.461 95.497 174.557 95.3613 174.677 95.2491C174.798 95.1368 174.94 95.0503 175.095 94.9948C175.25 94.9393 175.414 94.9161 175.579 94.9264C178.481 95.1061 182.639 94.8504 183.679 94.6016C183.926 94.5408 184.187 94.5692 184.416 94.6817C184.645 94.7941 184.827 94.9836 184.93 95.2167V95.2409C185.045 95.4985 185.054 95.7908 184.957 96.0554C184.86 96.3201 184.663 96.5362 184.408 96.6578C183.572 97.0483 182.062 97.4526 179.445 97.4526Z" fill="#D4C5B8"/>
<path d="M176.252 96.4006C175.261 96.4006 174.241 96.3522 173.201 96.2589C170.61 96.0321 168.051 95.5293 165.567 94.7592C165.263 94.657 165.012 94.4381 164.869 94.1507C164.726 93.8632 164.703 93.5308 164.805 93.2265C164.907 92.9222 165.126 92.671 165.414 92.5281C165.701 92.3852 166.034 92.3623 166.338 92.4645C166.459 92.506 178.454 96.4387 186.557 91.452C186.832 91.2838 187.163 91.2318 187.476 91.3073C187.79 91.3828 188.06 91.5796 188.228 91.8546C188.396 92.1296 188.449 92.4601 188.373 92.7734C188.298 93.0868 188.101 93.3573 187.826 93.5255C184.726 95.4192 180.766 96.4006 176.252 96.4006Z" fill="#EFE5D8"/>
<path d="M179.363 99.3533C176.647 99.3533 173.447 98.5447 170.181 95.9459C169.93 95.7461 169.769 95.4548 169.732 95.1359C169.696 94.8171 169.788 94.4969 169.988 94.2457C170.188 93.9946 170.479 93.8331 170.798 93.7968C171.117 93.7605 171.437 93.8524 171.688 94.0522C178.921 99.806 185.597 95.1995 185.663 95.1511C185.925 95.0008 186.234 94.9539 186.528 95.0196C186.823 95.0853 187.083 95.2588 187.256 95.5062C187.429 95.7535 187.504 96.0566 187.465 96.3561C187.426 96.6555 187.276 96.9296 187.045 97.1244C184.742 98.5675 182.081 99.3394 179.363 99.3533Z" fill="#EFE5D8"/>
<path d="M62.7393 96.8763C62.6829 96.8797 62.6263 96.8797 62.5699 96.8763L46.9257 94.6611C46.6081 94.6153 46.3218 94.4452 46.1296 94.1882C45.9375 93.9313 45.8553 93.6085 45.9011 93.2909C45.9469 92.9734 46.117 92.687 46.374 92.4948C46.6309 92.3027 46.9537 92.2205 47.2713 92.2663L62.9155 94.4814C63.0743 94.4926 63.2294 94.5349 63.3719 94.6059C63.5144 94.677 63.6415 94.7754 63.746 94.8956C63.8504 95.0157 63.9302 95.1553 63.9807 95.3063C64.0312 95.4573 64.0515 95.6168 64.0403 95.7756C64.0292 95.9345 63.9869 96.0895 63.9159 96.232C63.8448 96.3745 63.7464 96.5016 63.6262 96.6061C63.506 96.7105 63.3665 96.7903 63.2155 96.8408C63.0645 96.8913 62.905 96.9116 62.7462 96.9005L62.7393 96.8763Z" fill="#EFE5D8"/>
<path d="M60.9417 98.6556C60.8246 98.6543 60.7083 98.6368 60.5961 98.6037L48.5701 94.8715C48.4122 94.83 48.2643 94.757 48.1354 94.6568C48.0065 94.5566 47.8991 94.4314 47.8199 94.2886C47.7407 94.1459 47.6912 93.9886 47.6744 93.8262C47.6576 93.6638 47.6738 93.4996 47.7222 93.3437C47.7705 93.1877 47.8499 93.0432 47.9556 92.9188C48.0613 92.7943 48.191 92.6926 48.3371 92.6196C48.4832 92.5467 48.6425 92.5041 48.8055 92.4943C48.9684 92.4846 49.1317 92.508 49.2854 92.5631L61.3114 96.2918C61.5861 96.3778 61.8211 96.5588 61.9742 96.8024C62.1274 97.0461 62.1887 97.3364 62.147 97.6211C62.1054 97.9059 61.9636 98.1664 61.7471 98.356C61.5306 98.5456 61.2536 98.6518 60.9659 98.6556H60.9417Z" fill="#EFE5D8"/>
</svg>
